HIERARCHY
ROOT Hips
{
  OFFSET 0 0 0
  CHANNELS 6 Xposition Yposition Zposition Zrotation Yrotation Xrotation
  JOINT LeftThigh
  {
    OFFSET 8.409438 0 -5.917753
    CHANNELS 3 Zrotation Yrotation Xrotation
    JOINT LeftLeg
    {
      OFFSET 0 0 -42.358652
      CHANNELS 3 Zrotation Yrotation Xrotation
      JOINT LeftFoot
      {
        OFFSET 0 0 -39.357303
        CHANNELS 3 Zrotation Yrotation Xrotation
      }
    }
  }
  JOINT RightThigh
  {
    OFFSET -8.409438 0 -5.917753
    CHANNELS 3 Zrotation Yrotation Xrotation
    JOINT RightLeg
    {
      OFFSET 0 0 -42.358652
      CHANNELS 3 Zrotation Yrotation Xrotation
      JOINT RightFoot
      {
        OFFSET 0 0 -39.357303
        CHANNELS 3 Zrotation Yrotation Xrotation
      }
    }
  }
  JOINT SpineLow
  {
    OFFSET 0 0 4.719101
    CHANNELS 3 Zrotation Yrotation Xrotation
    JOINT SpineMid
    {
      OFFSET 0 0 12.899191
      CHANNELS 3 Zrotation Yrotation Xrotation
      JOINT Chest
      {
        OFFSET 0 0 12.899191
        CHANNELS 3 Zrotation Yrotation Xrotation
        JOINT LeftShoulder
        {
          OFFSET 7.550562 1.41573 9.438202
          CHANNELS 3 Zrotation Yrotation Xrotation
          JOINT LeftArm
          {
            OFFSET 9.155056 0 4.247191
            CHANNELS 3 Zrotation Yrotation Xrotation
            JOINT LeftForearm
            {
              OFFSET 0 0 25.771955
              CHANNELS 3 Zrotation Yrotation Xrotation
              JOINT LeftHand
              {
                OFFSET 0 0 25.197169
                CHANNELS 3 Zrotation Yrotation Xrotation
              }
            }
          }
        }
        JOINT RightShoulder
        {
          OFFSET -7.550562 1.41573 9.438202
          CHANNELS 3 Zrotation Yrotation Xrotation
          JOINT RightArm
          {
            OFFSET -9.155056 0 4.247191
            CHANNELS 3 Zrotation Yrotation Xrotation
            JOINT RightForearm
            {
              OFFSET 0 0 -25.771955
              CHANNELS 3 Zrotation Yrotation Xrotation
              JOINT RightHand
              {
                OFFSET 0 0 -25.197169
                CHANNELS 3 Zrotation Yrotation Xrotation
              }
            }
          }
        }
        JOINT Neck
        {
          OFFSET 0 0 15.101124
          CHANNELS 3 Zrotation Yrotation Xrotation
          JOINT Head
          {
            OFFSET 0 0 11.325843
            CHANNELS 3 Zrotation Yrotation Xrotation
            End Site
            {
              OFFSET 0 0 14.157303
            }
          }
        }
      }
    }
  }
}
MOTION
Frames: 5
Frame Time: 0.0
0.0  89.887642  0.0  12.000383  -17.659698  -125.309981  9.204187  -41.390995  -54.560708  34.954469  54.492239  95.445321  13.762607  2.35302  6.239774  -19.059655  7.889345  5.075412  21.951764  6.589822  33.432535  -0.470133  1.276461  0.899685  -1.475526  1.103664  3.403152  -3.871629  3.216069  9.237504  -3.871629  3.216069  9.237504  -20.533139  26.447847  4.243346  -118.757763  58.337894  -61.139045  -32.956204  -19.196198  67.403156  81.619076  16.964744  -12.700893  -1.013745  1.189407  20.565172  111.993283  22.533074  54.388692  -14.823761  3.981932  -99.032937  98.684068  2.145663  -31.854425  9.192956  3.161931  10.236025  6.842252  2.526918  7.629533  
0.0  89.887642  0.0  13.128978  -17.452254  -126.714282  9.33488  -42.838113  -56.8648  24.068701  50.200976  82.982133  12.376584  1.840129  7.587811  -19.10614  8.94781  6.212234  23.500846  7.009826  33.53831  -1.216128  1.135276  0.543473  -1.425701  1.290723  3.347818  -3.713422  3.716157  9.079899  -3.713422  3.716157  9.079899  -19.427283  27.475756  5.322196  -117.32864  58.399505  -59.758009  -32.903646  -19.172442  66.735862  81.392756  17.226087  -11.867841  0.310761  0.728322  22.567986  113.191793  23.069984  54.776586  -14.920265  4.982131  -99.31536  99.134163  2.766411  -30.952832  9.155324  3.114971  11.006867  6.811287  2.50273  8.208622  
0.0  89.887642  0.0  14.233922  -17.288952  -127.984405  9.394424  -43.138384  -57.951375  11.888264  45.429773  69.317352  10.771267  1.290479  8.787326  -18.787719  10.051516  6.969246  23.701483  7.325455  33.386548  -1.208343  1.319121  0.515964  -1.454217  1.416348  3.240302  -3.781378  4.056667  8.778235  -3.781378  4.056666  8.778234  -17.741136  29.076868  6.56432  -115.708924  58.408049  -58.07636  -32.902954  -19.128815  66.097526  81.198961  17.492355  -11.246909  1.628637  0.64482  24.595628  114.898663  23.606959  55.413595  -15.622588  5.680411  -99.67474  99.745739  3.610178  -31.055574  9.423138  3.347915  11.9411  7.00305  2.697012  8.904148  
0.0  89.887642  0.0  15.214984  -17.272437  -128.842236  9.262668  -41.78294  -57.450059  -2.914899  38.9753  53.596862  10.239415  0.647336  10.206085  -17.970733  10.681581  7.567496  24.405644  7.559339  33.629465  -1.463329  1.479067  0.374014  -1.509806  1.476316  3.088917  -3.935503  4.218844  8.357632  -3.935503  4.218844  8.357632  -15.812421  30.85542  7.811888  -114.220272  58.258511  -56.547523  -32.950709  -19.024334  65.563342  81.01146  17.756755  -10.737192  3.000026  0.865629  26.62789  116.761447  24.281273  55.99577  -16.125974  6.58372  -99.990099  100.289865  4.506169  -31.354669  9.865997  3.760814  12.870698  7.321411  3.030877  9.591778  
0.0  89.887642  0.0  16.077692  -17.533639  -129.395353  9.615107  -39.741889  -54.950183  -19.530087  29.588494  37.033121  11.060758  0.365261  11.85261  -16.993888  10.997066  7.827577  24.162784  7.733542  33.574647  -1.537712  1.642029  0.304592  -1.478626  1.484235  2.892869  -3.862288  4.225505  7.822925  -3.862288  4.225505  7.822925  -14.026268  32.367383  9.480524  -113.460298  57.850819  -55.661097  -33.072945  -19.010066  65.128351  80.795835  18.100912  -10.178917  3.957535  1.138985  28.669244  118.532785  24.945175  56.389871  -16.617609  7.536859  -100.057549  100.896501  5.929171  -32.513589  10.17605  4.15103  13.881272  7.538905  3.34749  10.340634  
